<svg xmlns="http://www.w3.org/2000/svg" width="513" height="513"><path d="M234 51.04c-2.475.424-6.075 1.244-8 1.82a272.218 272.218 0 01-8 2.216c-2.475.643-5.625 1.747-7 2.455-1.375.707-4.3 1.611-6.5 2.009-2.2.397-4.45.989-5 1.315-.55.326-1.45.628-2 .672-2.532.202-6.5 1.778-6.5 2.581 0 .491-.891.892-1.98.892-2.833 0-10.375 3.117-11.32 4.679-.44.726-1.252 1.321-1.805 1.321-1.716 0-13.167 8.077-17.895 12.623-2.475 2.38-6.709 6.251-9.409 8.602-2.7 2.351-6.3 5.83-8 7.73-1.7 1.9-6.466 6.861-10.591 11.024-13.23 13.351-28.976 34.045-34.814 45.752-1.034 2.073-3.524 6.87-5.533 10.661-2.009 3.791-3.653 7.503-3.653 8.25 0 .747-.368 1.358-.818 1.358-.45 0-2.211 3.488-3.913 7.75-3.454 8.649-4.207 11.166-4.862 16.25-.248 1.925-.891 4.805-1.429 6.399-1.282 3.8-1.234 4.603.272 4.591.688-.006 2.345-2.474 3.684-5.485l2.434-5.474 1.224 3.559c.673 1.957 1.378 3.703 1.566 3.878.378.354 13.375.902 16 .675.912-.079 4.187-2.203 7.278-4.721 4.882-3.977 10.915-11.272 27.941-33.794 2.133-2.82 5.789-9.202 8.126-14.181 3.713-7.911 5.874-10.793 17.123-22.84 7.972-8.538 13.971-15.933 15.754-19.423 3.967-7.762 22.372-25.427 23.371-22.431.229.686 1.643 1.247 3.142 1.247 2.702 0 22.73-7.442 24.557-9.125.522-.481 1.647-.878 2.5-.881.852-.004 2.854-.687 4.449-1.518 4.978-2.596 4.017-.815-1.723 3.191-11.042 7.707-13.601 9.867-13.638 11.512-.042 1.865-1.012 2.946-6.553 7.304-6.679 5.254-24.485 22.861-24.485 24.212 0 2.66 3.11 1.162 7.714-3.716 2.607-2.762 6.55-6.249 8.763-7.75 2.212-1.501 4.473-3.237 5.023-3.857.828-.934 8.011-5.789 14.5-9.799 1.694-1.047 2.105-1.67-5.563 8.427-10.587 13.94-13.932 26.678-9.96 37.936 1.554 4.404 7.563 11.064 9.982 11.064 2.139 0 2.77-1.704 1.506-4.065-1.643-3.071-.751-3.228 2.927-.515 2.299 1.697 4.508 2.378 7.557 2.332 4.793-.072 28.551 5.175 28.551 6.306 0 .958-4.768 1.802-16.079 2.845-5.213.481-9.506 1.353-9.713 1.972-.25.751-.95.798-2.169.146-1.17-.626-3.958-.583-7.97.124-4.849.854-6.102 1.437-5.849 2.721.371 1.885 4.927 2.098 16.28.761 3.85-.453 6.729-.546 6.397-.206-.331.34-3.031.864-6 1.165-2.968.3-6.972.937-8.897 1.413-4.216 1.044-15.155 2.486-16.367 2.158-.477-.129-2.277.216-4 .768-1.723.551-5.833 1.224-9.133 1.495-11.707.961-18.988 1.763-19.638 2.165-.363.225-2.618.641-5.011.925-7.863.934-27.305 5.81-29.57 7.416-1.22.866-2.232 2.365-2.25 3.333-.027 1.518.685 1.693 5.219 1.277 19.02-1.743 34.477-1.522 33.243.476-.259.418.589.962 1.882 1.209 1.94.371 2.261.105 1.836-1.522-.478-1.828-.105-1.938 5.11-1.505 3.094.256 5.75.131 5.902-.279.409-1.1 22.386-4.915 28.315-4.915 2.811 0 9.801-.745 15.536-1.656 8.488-1.347 17.863-1.645 50.426-1.6 22 .031 45.175.512 51.5 1.069 6.325.558 14.666 1.18 18.535 1.384 5.808.306 7.813.896 11.5 3.384 6.702 4.523 7.521 4.668 7.772 1.375.118-1.554-.24-3.106-.796-3.449-1.987-1.228-.963-2.634 1.69-2.323 3.029.354 7.731 6.839 5.498 7.583-1.638.546-1.515 2.898.186 3.551.762.292 2.337-.135 3.5-.95 1.647-1.154 2.112-2.52 2.1-6.175-.021-6.725-1.737-9.537-6.269-10.274-5.04-.819-5.895-1.887-.983-1.228l3.898.523 2.761-6.357c1.518-3.496 3.469-7.756 4.336-9.466 2.193-4.329.575-15.975-4.571-32.891-2.175-7.15-4.497-15.095-5.16-17.657-1.58-6.108-11.516-16.625-14.591-15.445-1.961.752-1.754 1.538 1.603 6.102 6.772 9.204 8.171 11.46 7.798 12.579-.216.649-2.612-2.141-5.323-6.2-11.352-16.99-26.277-33.912-33.484-37.963a341.574 341.574 0 01-7-4.069c-1.925-1.156-6.842-3.856-10.927-5.999-4.085-2.144-8.017-4.386-8.737-4.984-.721-.598-1.991-.827-2.823-.507-.832.319-1.513.192-1.513-.281 0-1.631-3.528-2.248-14.5-2.536-13.139-.344-23.194.672-30 3.033-2.75.953-6.575 2.082-8.5 2.509-7.294 1.615-19.844 6.608-29 11.537-5.225 2.813-11.3 5.947-13.5 6.965-2.2 1.018-4.45 2.23-5 2.693-.55.463-2.35 1.708-4 2.768-7.139 4.584-8.035 5.253-14 10.451-6.811 5.935-8.375 5.15-3.974-1.996 3.031-4.921 3.194-6.863.503-6.009-1.784.566-1.855.407-.747-1.683 3.438-6.482 9.14-11.78 16.718-15.532 1.375-.681 3.175-1.675 4-2.209 2.32-1.502 30.133-12.329 33.425-13.012 3.235-.671 4.845-3.135 1.908-2.921-1.008.073-3.858.481-6.333.906m129.958 88.043l-2.15 4.213 3.346-1.954c1.896-1.107 3.346-2.761 3.346-3.815 0-3.486-2.387-2.668-4.542 1.556m16.792 30.666c-2.288.52-2.227 1.926.14 3.192 1.521.814 1.99.627 2.406-.964.588-2.248-.039-2.797-2.546-2.228m-124 .983c2.337.211 6.163.211 8.5 0 2.337-.21.425-.383-4.25-.383s-6.588.173-4.25.383M244 172c.825.533 2.175.969 3 .969 1.333 0 1.333-.107 0-.969-.825-.533-2.175-.969-3-.969-1.333 0-1.333.107 0 .969m-8 8.131c-7.563 1.235-8.654 1.896-2 1.213 3.025-.311 10.225-.888 16-1.284l10.5-.719-9.5-.054c-5.225-.029-11.975.351-15 .844M217 183c-1.959.627-2.067.797-.5.782 1.1-.01 3.35-.362 5-.782 2.695-.686 2.746-.765.5-.782-1.375-.01-3.625.342-5 .782m-12.731 1.94c-4.66.759-5.96 1.515-4.336 2.519.587.362 1.067.182 1.067-.4 0-.582 1.688-1.112 3.75-1.177 2.063-.065 5.1-.462 6.75-.882l3-.763-3 .006c-1.65.004-4.904.318-7.231.697m-79.987 21.767c-1.204 3.137-7.904 10.384-11.782 12.743l-3 1.825 2.75-2.942c1.513-1.618 2.75-3.705 2.75-4.638 0-3.067-2.82-1.772-6.107 2.805-1.778 2.475-3.793 4.5-4.479 4.5-.686 0-1.397.346-1.581.768-.416.96-13.171 7.232-14.706 7.232-.62 0-1.127.436-1.127.969 0 .532-.603.737-1.34.454-.737-.283-1.945.216-2.685 1.108-1.133 1.364-1.119 1.765.089 2.53 2.06 1.303 7.703 1.146 13.578-.378l5.079-1.318-2.611 3.81c-1.435 2.096-3.623 4.087-4.86 4.426-2.049.561-3.366 4.413-1.5 4.39 3.367-.043 23.25-15.591 23.25-18.182 0-.387 2.188-3.594 4.863-7.128 4.679-6.182 8.137-12.061 8.137-13.835 0-1.59-4.061-.85-4.718.861m140.063 6.836c-.326.849-.369 1.767-.096 2.04.274.273.737-.422 1.03-1.543.624-2.383-.069-2.751-.934-.497m74.655-.348c-9.471 2.681-13.92 4.187-18.5 6.261-9.767 4.424-15.397 6.544-17.376 6.544-3.646 0-2.999 1.496.725 1.68 6.412.317 19.229-2.967 26.387-6.76.955-.506 2.553-.92 3.55-.92.998 0 2.42-.562 3.161-1.25 1.077-1 1.205-1 .641 0-.388.688-.229 1.25.353 1.25s1.059-.43 1.059-.955c0-.525 1.688-1.232 3.75-1.572 2.063-.339 4.732-1.094 5.933-1.678 1.2-.583 2.898-.786 3.773-.45s3.718.316 6.318-.045l4.726-.655-5-1.303c-5.785-1.508-14.461-1.573-19.5-.147m-162.226 5.809c1.801 1.098 3.819 1.996 4.485 1.996.666 0-.468-.9-2.52-2-4.827-2.587-6.21-2.585-1.965.004m56.296 1.164c-.038 1.468-.314 3.305-.613 4.084-.324.843.08 1.415 1 1.415 1.689 0 1.945-2.905.543-6.167-.77-1.791-.867-1.721-.93.668m29.633 1.624c-.646 3.744-.399 4.74 1.934 7.798 1.47 1.928 3.612 4.008 4.759 4.622 1.347.721.951-.019-1.117-2.087-2.931-2.931-3.68-4.93-4.538-12.125-.218-1.826-.498-1.343-1.038 1.792m7.9-3.062c-.956.956-.671 7.618.397 9.27.825 1.276.972 1.234.985-.282.024-2.779 3.278-3.345 12.74-2.218 7.432.886 8.973.814 10.338-.48.882-.836 1.538-1.623 1.459-1.748-.08-.126-2.592.164-5.584.643-7.758 1.243-14.798-.051-17.525-3.221-1.214-1.412-2.479-2.295-2.81-1.964m-45.982 1.074c-.416.674-2.607 2.168-4.868 3.322-3.594 1.834-5.249 2.025-13.182 1.526-4.989-.314-10.646-.809-12.571-1.101-1.925-.292-1.025.152 2 .988 7.764 2.144 29.626 2.877 30.34 1.016.782-2.037-.782-7.267-1.719-5.751m165.18 2.798c-.934 1.705-3.36 4.559-5.389 6.341-3.065 2.691-4.342 3.178-7.531 2.874-2.583-.246-4.01.078-4.361.99-.742 1.934-.647 2.39.367 1.763.487-.301 1.442.122 2.122.941 1.708 2.058 3.286 1.88 9.006-1.019 6.111-3.096 8.216-6.11 7.8-11.166l-.315-3.826-1.699 3.102m-89.051.06c.688.278 1.813.278 2.5 0 .688-.277.125-.504-1.25-.504s-1.937.227-1.25.504m-56.24 6.322c-.345.559-.184 1.016.358 1.016s1.191.787 1.443 1.75c.353 1.351.483 1.251.573-.441.128-2.426-1.392-3.915-2.374-2.325m11.698 7.211c1.355 1.758 3.1 3.396 3.878 3.641.778.244.176-.722-1.336-2.148-1.512-1.426-2.75-3.064-2.75-3.64 0-.577-.508-1.048-1.128-1.048-.621 0-.019 1.438 1.336 3.195M134.145 247c.084 5.46.091 5.471.865 1.5.429-2.2.391-4.675-.085-5.5-.557-.967-.834.454-.78 4m107.416 3.435c-.938 7.411-1.843 9.818-4.688 12.469-1.238 1.153-1.715 2.096-1.062 2.096.654 0 1.189.675 1.189 1.5 0 .998.921 1.461 2.75 1.384 1.692-.071 2.077-.292 1-.573-2.59-.677-2.209-4.107.5-4.491 1.51-.215 2.152-.9 1.953-2.083-.163-.97.341-2.009 1.121-2.308 1.053-.404 1.285-1.75.902-5.236-.283-2.581-.833-4.918-1.221-5.193-.388-.275-.927-1.175-1.199-2s-.832 1.171-1.245 4.435m33.104-2.702c-.374.606-.963 3.163-1.309 5.684-.513 3.746-.344 4.583.925 4.583.854 0 1.779.563 2.057 1.25.277.688.508-1 .513-3.75.009-5.56-1.104-9.517-2.186-7.767m-17.429 9.694c.155 2.687.749 4.565 1.444 4.568.809.003.936-.859.404-2.745-.427-1.512-.597-3.271-.377-3.908.219-.637-.082-1.456-.669-1.818-.709-.439-.978.868-.802 3.903M260 264.75c0 1.046 1.15 2.982 2.556 4.302 2.116 1.989 2.431 2.076 1.83.51-.506-1.316-.371-1.671.444-1.167 2.392 1.478.955-.978-1.885-3.221-2.746-2.169-2.945-2.197-2.945-.424m-120 5.628c0 .207.787.995 1.75 1.75 1.586 1.243 1.621 1.208.378-.378-1.307-1.666-2.128-2.195-2.128-1.372M389.872 290.5c-.74 6.617-4.041 13.584-8.636 18.231-2.055 2.078-3.308 3.438-2.786 3.023.522-.415 2.23-.754 3.795-.754 6.484 0 10.642-8.934 9.076-19.498l-.889-6.002-.56 5M214.306 295c-.623 1.65-.77 3-.328 3 .443 0 1.088-1.125 1.433-2.5.867-3.454 3.585-3.266 3.604.25.011 1.929.273 2.344.878 1.389 1.399-2.208.093-5.139-2.29-5.139-1.487 0-2.519.94-3.297 3M154 304.909c0 .93-.479 2.17-1.064 2.755-.752.752.495.894 4.25.487 2.923-.318 7.46-.548 10.083-.512 2.623.036 4.633-.07 4.468-.236-.166-.165-4.224-1.175-9.019-2.243-8.089-1.803-8.718-1.821-8.718-.251m64.558 7.849c-.743 8.92-.868 9.28-3.415 9.888-3.707.883-5.143 2.239-5.143 4.854 0 2.347 1.239 3.739 4.302 4.833 1.037.371 1.552.239 1.213-.309-.325-.525.639-2.81 2.14-5.079 3.064-4.63 4.124-12.619 2.58-19.445-.842-3.72-.959-3.353-1.677 5.258m153.879-6.148c-1.134.762-5.409 2.261-9.5 3.333l-7.437 1.947 5 .211c2.75.116 6.225.269 7.721.339 1.919.091 3.34-.708 4.817-2.706 2.534-3.427 2.227-5.024-.601-3.124m-46.707 3.342c-7.225 2.309-18.355 8.863-21.988 12.947-1.516 1.706-2.511 3.101-2.21 3.101 1.143 0 8.36-4.017 8.959-4.986.794-1.284 5.509-1.338 5.509-.062 0 .524-2.002 2.329-4.449 4.013-4.753 3.27-7.302 6.043-3.864 4.202 1.061-.567 4.367-3.357 7.346-6.199 2.98-2.842 8.016-6.479 11.192-8.082 4.116-2.077 5.775-3.485 5.775-4.9 0-1.092-.113-1.962-.25-1.932-.137.029-2.847.883-6.02 1.898m17.77-1.432c.55.199 2.688.802 4.75 1.34 3.032.791 3.75.707 3.75-.441 0-1.037-1.277-1.398-4.75-1.34-2.613.043-4.3.242-3.75.441m-34.64 25.888c-1.038 2.278-.259 9.876 1.786 17.429.594 2.195.39 2.319-3.375 2.047-2.743-.198-4.546.248-5.711 1.413-.937.937-2.346 1.703-3.131 1.703-1.07 0-.949.48.482 1.911 1.051 1.051 2.677 3.526 3.614 5.5.936 1.974 2.144 3.589 2.684 3.589s-.204-2.022-1.652-4.494c-2.112-3.603-2.421-4.891-1.56-6.5 1.388-2.594 5.412-2.597 8.003-.006 2.583 2.583 2.737 2.534 2.379-.75-1.203-11.025-2.058-22.874-1.695-23.5.239-.413.173-.75-.146-.75-.32 0-1.075 1.084-1.678 2.408M286.079 336c-.831 5.164-.547 6.906 1.198 7.362 1.322.346 1.564.151.862-.695-.537-.646-1.165-2.748-1.397-4.671-.232-1.923-.531-2.821-.663-1.996m-70 11.25c-.043.962.434 1.75 1.061 1.75s1.639.647 2.25 1.437c.61.79 2.91 1.679 5.11 1.974l4 .537-3.941-1.298c-2.168-.714-4.118-1.827-4.334-2.474-.215-.647-.992-1.176-1.725-1.176-.733 0-1.56-.562-1.838-1.25-.301-.747-.536-.545-.583.5M202 354.491c0 .271 1.344 1.776 2.987 3.346 1.643 1.571 2.656 3.257 2.25 3.748-.405.492.198.111 1.342-.846 1.143-.956 2.761-1.739 3.595-1.739 1.953 0 4.826 3.172 4.826 5.329 0 2.075 1.355 2.153 3 .171 1.678-2.022 4.67-1.896 5.92.25.561.962 1.033 1.243 1.05.622.057-2.125-2.821-3.564-5.814-2.906-2.349.516-3.301.165-4.829-1.777-2.087-2.653-6.327-4.5-6.327-2.756 0 1.945-2.824 1.106-4.821-1.433-1.825-2.32-3.179-3.175-3.179-2.009m88.87 3.745l-2.447 2.236 2.471 6.014c1.367 3.328 2.668 8.856 2.912 12.376.414 5.972.271 6.508-2.338 8.75-1.528 1.313-3.426 2.388-4.216 2.388s-2.526.857-3.858 1.904l-2.421 1.905 4.531 2.193c2.491 1.206 5.036 3.139 5.655 4.295.975 1.822.682 2.472-2.199 4.878-2.888 2.411-3.186 3.074-2.267 5.05a130.41 130.41 0 012.207 5.125c.631 1.567 2.037 3.082 3.124 3.367 1.087.284 1.976.891 1.976 1.349 0 .458 2.025 2.976 4.5 5.597 2.475 2.62 4.5 5.117 4.5 5.55 0 .433 1.405.787 3.122.787 2.808 0 2.984.171 1.75 1.692-1.182 1.458-1.165 1.576.128.851.825-.462 2.433-1.677 3.573-2.7 2.477-2.221 11.147-2.437 46.427-1.159 22.117.802 25.345.636 43.624-2.246 5.018-.791 11.626-1.438 14.685-1.438 6.305 0 10.142-1.186 12.542-3.876.907-1.018 4.209-2.387 7.337-3.045 6.677-1.403 11.38-4.314 14.538-9.001 3.933-5.835 2.881-17.626-2.489-27.903-2.859-5.471-13.988-11.691-24.237-13.545-18.216-3.294-48.832-5.29-56.5-3.682-2.75.576-11.525 1.293-19.5 1.592-7.975.3-16.975 1.01-20 1.58-3.735.702-6.351.709-8.151.02-2.134-.817-2.964-.67-4.25.751-.88.972-1.599 2.024-1.599 2.338 0 .314-1.575 2.146-3.5 4.071-3.436 3.436-3.5 3.455-3.5 1.041 0-1.352.39-2.218.866-1.924.477.295 1.702-.466 2.724-1.691 1.021-1.224 1.216-1.663.433-.976-2.465 2.165-5.023 1.529-5.023-1.25 0-1.375-.419-2.5-.93-2.5-.574 0-.574 1.243 0 3.243 1.576 5.497 1.092 7.112-3.001 10.007-5.772 4.082-7.069 3.71-7.069-2.032 0-2.63-.716-7.243-1.592-10.25-2.466-8.469-2.34-11.161.592-12.66 1.562-.799 1.903-1.284.908-1.293-.875-.008-2.692.991-4.038 2.221m-10.087 3.169c-2.362 2.96-2.522 3.567-1.227 4.641 1.214 1.008 1.386.966.93-.222-.762-1.986 3.378-7.09 5.186-6.396.795.305 1.16.11.821-.439-1.117-1.807-2.964-1.026-5.71 2.416M270 365.5c-2.576 4.168-3.298 4.268-7.182 1-3.917-3.296-6.816-3.155-10.318.5-1.581 1.65-3.469 3-4.196 3-.727 0-2.735-1.35-4.461-3-1.727-1.65-3.537-3-4.023-3-1.949 0-7.82 2.965-7.82 3.949 0 1.193-3.611 1.448-4.253.301-.23-.413-.257-.123-.059.644.198.766-.162 6.166-.799 12-.885 8.102-1.6 10.999-3.029 12.271-1.351 1.201-1.522 1.805-.616 2.171.757.305.561.537-.494.585-2.396.108-2.213 2.145.25 2.789 1.1.288 2 1.146 2 1.907 0 .761 1.012 1.393 2.25 1.405 1.238.012 3.375.902 4.75 1.978s3.063 1.966 3.75 1.978c.688.012 1.25.416 1.25.897 0 .481 1.368 1.149 3.041 1.483 1.673.335 4.373 2.066 6 3.848 2.62 2.869 3.468 3.019 3.077.544-.065-.413.734-.75 1.775-.75s2.152-.675 2.469-1.5c.746-1.946 2.095-1.9 4.136.14.902.903 3.071 1.933 4.821 2.289 2.166.442 3.655 1.594 4.666 3.61l1.486 2.961.514-3.976c.555-4.283 3.872-6.992 7.265-5.935.962.3 1.75.065 1.75-.522s1.527-1.067 3.393-1.067c2.225 0 3.61-.566 4.024-1.643.864-2.254.565-2.368-3.695-1.407-2.396.54-3.722.479-3.722-.172 0-.556-1.125-.796-2.5-.533-2.025.387-2.503.077-2.514-1.634-.007-1.161-.285-3.123-.616-4.361-.463-1.728-.17-2.273 1.263-2.35 1.384-.074 1.238-.275-.562-.778-2.185-.611-2.453-1.277-2.673-6.65-.135-3.285-.562-9.142-.949-13.017-.698-6.982-.676-7.074 2.5-10.25 2.082-2.082 2.681-3.205 1.709-3.205-.822 0-2.468 1.575-3.658 3.5m-96.083-1.092c-.229.225-11.217.681-24.417 1.015-25.395.642-32.878 1.217-35.799 2.754-1.181.621-3.056.531-5.46-.262-5.324-1.758-16.163-1.281-22.391.984-2.943 1.07-7.825 2.233-10.85 2.585-13.455 1.564-21 7.473-21.796 17.069-.355 4.281.028 5.986 2.159 9.623 2.913 4.97 12.668 15.959 16.252 18.307 1.293.848 8.507 3.147 16.03 5.109 11.37 2.965 15.885 3.639 26.766 3.994 40.305 1.315 68.303 3.068 70.786 4.432 1.277.702 2.147.36 3.519-1.384 1.002-1.274 2.826-2.854 4.053-3.51 1.227-.657 2.231-2.041 2.231-3.076 0-1.035 1.238-2.804 2.75-3.933 2.103-1.569 2.343-2.059 1.019-2.083-.972-.018-1.992-1.071-2.326-2.404-.929-3.702-8.293-6.719-10.349-4.241-.953 1.148-.738 1.749 1.081 3.023 1.813 1.27 1.929 1.59.573 1.59-.933 0-2.395-1.35-3.248-3-.853-1.65-1.924-3-2.38-3-1.43 0-6.12-4.838-6.12-6.314 0-.982.796-1.256 2.631-.906 3.443.658 2.801-1.754-.955-3.585-1.537-.749-2.676-2.132-2.676-3.25 0-2.367-1.566-2.543-2.812-.317-.501.896-1.157 1.231-1.457.745-.301-.485.312-1.943 1.361-3.239 1.05-1.295 1.908-1.904 1.908-1.353 0 .551 1.238 1.312 2.75 1.691s4.115 2.115 5.782 3.858c7.968 8.328 19.227 17.511 20.235 16.503.73-.73 1.389-.409 2.176 1.06 1.508 2.819 4.594 2.661 7.648-.393 2.1-2.1 3.441-2.5 8.382-2.5 5.077 0 6.15.341 7.84 2.49 1.698 2.159 2.123 2.292 3.195 1 .68-.82 2.082-1.49 3.114-1.49 1.033 0 1.878-.45 1.878-1s-.863-1-1.917-1-2.151-.562-2.437-1.25c-.387-.929-.861-.834-1.846.367-1.149 1.401-1.504 1.425-2.665.182-.737-.789-2.032-1.169-2.878-.844-1.943.745-6.257-2.011-6.257-3.997 0-1.092-.668-1.329-2.47-.876-1.613.405-3.027.064-4.072-.981-.88-.881-2.469-1.601-3.529-1.601-1.061 0-1.929-.45-1.929-1s-.45-1-1-1-1.843-.788-2.873-1.75c-7.027-6.564-15.985-11.175-21.794-11.219-2.291-.017-4.316-.382-4.5-.812-.183-.43-1.874-1.515-3.758-2.413l-3.424-1.631 4.424-.548c5.806-.719 10.933-.3 13.479 1.102 2.632 1.45 5.232.093 3.591-1.873-5.787-6.937-7.569-8.712-8.294-8.264-1.71 1.057-4.826 1.257-5.389.347-.779-1.261-6.182-1.2-6.972.077-.346.559-1.124.71-1.729.336-.708-.438-.873-.087-.462.984.719 1.876-.796 2.286-1.893.513-.516-.837-1.012-.768-1.809.25-.671.858-3.354 1.49-6.917 1.631-4.986.197-5.773-.011-5.495-1.453.204-1.057 1.969-2.084 4.746-2.76 2.432-.592 4.578-1.545 4.769-2.116.219-.659 3.475-.876 8.894-.591 8.808.462 10.952-.223 9.832-3.143-.569-1.483-5.339-2.406-6.509-1.259m61.867 2.146c-4.795 2.603-7.66 8.983-8.409 18.726-.652 8.485-.614 8.7 1.729 9.726 2.274.997 2.282 1.028.146.616-1.238-.239-2.25.029-2.25.597 0 .621 1.241.783 3.125.406 1.719-.344 6.498-.625 10.621-.625h7.495l-.41-12.326-.41-12.326-3.461-3.145c-3.937-3.578-4.437-3.678-8.176-1.649m17.457.696c-3.428 3.659-4.241 7.267-4.241 18.815V397l6.25-.048c3.828-.029 7.606-.72 9.75-1.781l3.5-1.733-.284-9.335c-.308-10.104-1.512-13.617-5.831-17.015-3.435-2.702-6.512-2.648-9.144.162m88.885 4.441c-1.269.931-1.385 1.589-.525 3 1.427 2.345 5.709 2.845 7.357.86 1.841-2.219 14.271-2.185 16.121.045.974 1.173 2.314 1.437 5.062.997 2.056-.328 3.991-.189 4.3.311.308.5 1.461.673 2.56.385 1.411-.369 1.999-.03 1.999 1.153 0 .922.338 1.467.75 1.212.413-.255 3.226 1.743 6.25 4.44 3.025 2.696 6.251 4.903 7.168 4.904 2.677.003 4.832 1.115 4.832 2.492 0 2.224 3.999 2.511 6.074.436 2.285-2.285 3.926-2.487 3.926-.483 0 .899.745 1.299 1.979 1.061 1.088-.21 2.278.102 2.643.693.414.67 1.299.233 2.35-1.16 1.549-2.053 1.817-2.105 3.293-.629 1.091 1.091 1.825 1.255 2.284.513.372-.603.181-1.591-.426-2.198-1.016-1.016-1.968-1.35-6.123-2.146-4.745-.91-6.864-1.95-7.29-3.577-.263-1.007-.051-2.259.472-2.782.6-.6.19-1.149-1.116-1.49-1.136-.298-2.066-.185-2.066.249 0 1.006-4.952 1.979-6.687 1.313-2.33-.894-1.404-2.067 2.437-3.087l3.75-.996-3.719-.104c-2.883-.08-3.588-.442-3.138-1.614.411-1.073.121-1.336-1.002-.905-.883.339-2.756-.316-4.238-1.481l-2.655-2.089-3.965 2.228c-3.924 2.205-3.981 2.208-5.401.266-1.109-1.517-1.814-1.725-3.099-.915-1.223.771-2.568.608-5.087-.617-2.569-1.25-4.457-1.466-7.56-.864-5.434 1.052-5.855 1.051-5.197-.013.834-1.349-14.419-.795-16.313.592M201.71 373c-.287 1.1-.356 2-.152 2 .205 0 .853-.9 1.442-2 .591-1.105.659-2 .152-2-.505 0-1.154.9-1.442 2M128 379c1.939 1.253 3 1.253 3 0 0-.55-1.012-.993-2.25-.985-1.819.013-1.963.201-.75.985m5.385 2.465c.888 1.355 1.615 3.809 1.615 5.452 0 2.497 1.269 4.055 7.75 9.512 4.262 3.588 7.9 6.085 8.083 5.548.184-.537.794-.977 1.357-.977s.77.661.461 1.468c-.797 2.076.88 2.802 2.358 1.021 1.655-1.993 2.973-1.881 3.07.261.047 1.045.282 1.247.583.5.663-1.641 2.338-1.611 2.338.043 0 1.04 6.818 3.655 9.683 3.714.375.007.779-1.717.899-3.832.19-3.374-.419-4.538-4.972-9.51-2.854-3.116-5.734-5.665-6.4-5.665-.665 0-1.21-.399-1.21-.887 0-.487-1.238-1.135-2.75-1.439-6.927-1.393-8.959-1.95-11.891-3.26-1.728-.773-3.409-2.101-3.735-2.952-.479-1.249-1.005-1.329-2.717-.412-1.534.821-2.424.833-3.214.043-2.04-2.04-2.931-1.105-1.308 1.372M426 380.878c0 1.475 2.845 3.336 4.005 2.619.78-.482.758-1.078-.079-2.086-1.293-1.558-3.926-1.915-3.926-.533m-346.704 3.148c-.628 1.664-1.514 2.961-1.969 2.881-2.53-.441-4.211.232-3.727 1.492.747 1.948-1.159 2.884-2.769 1.36-1.732-1.639-9.032-1.646-9.579-.009-.23.688.294 1.25 1.165 1.25s1.583.661 1.583 1.469c0 .847.592 1.241 1.399.931 1.771-.679 3.16 1.441 1.821 2.78-1.329 1.329 4.42 6.895 6.354 6.153.775-.297 1.69.193 2.034 1.089.505 1.316.91 1.393 2.106.401 1.197-.994 1.665-.897 2.451.507.754 1.348 1.737 1.591 4.407 1.09 2.42-.454 4.203-.142 6.027 1.053 2.802 1.836 7.181 2.824 11.842 2.673 1.618-.053 4.983.598 7.478 1.445 3.033 1.03 4.655 1.187 4.892.475.733-2.197 2.403-.965 1.944 1.434-.475 2.488.723 3.566 1.471 1.323.254-.762.9-.859 1.833-.275.793.496 2.228.773 3.191.614.963-.158 1.75.212 1.75.823 0 1.276 7.811.416 9.584-1.055 1.508-1.251 6.551 1.213 5.92 2.893-.317.843.136 1.2 1.25.986 1.67-.322 2.553-2.811.995-2.807-1.642.003-7.809-3.855-9.5-5.943-1.151-1.421-3.185-2.345-5.675-2.576-2.134-.199-4.149-.769-4.477-1.268-1.549-2.353-13.759-9.631-16.523-9.849-1.712-.135-4.454-.945-6.093-1.799-1.64-.855-3.528-1.557-4.196-1.561-.668-.003-1.696-.906-2.285-2.006-1.262-2.357-3.547-2.623-4.359-.506-.468 1.22-1.038 1.282-3.107.339-1.394-.635-2.534-1.667-2.534-2.294 0-1.478-2.34-6.521-3.031-6.531-.292-.004-1.044 1.354-1.673 3.018m230.573-1.271c1.4 2.617 12.154 12.245 13.676 12.245.63 0 1.913.848 2.851 1.885s3.033 2.151 4.655 2.475c1.622.325 2.949 1.083 2.949 1.686s.631 1.728 1.403 2.5c1.204 1.204 1.483 1.193 1.968-.072.341-.886-.019-1.474-.902-1.474-1.863 0-1.932-3.984-.114-6.471.919-1.256 1.958-1.623 3.222-1.138 1.579.606 1.64.86.395 1.647-.996.63-1.068.936-.222.947.688.008 1.25 1.14 1.25 2.515 0 1.744.529 2.476 1.75 2.421 1.045-.047 1.247-.282.5-.583-1.758-.71-1.562-3.338.25-3.338.825 0 1.507.563 1.515 1.25.011.905.256.87.889-.128.535-.846 1.388-1.06 2.206-.554.733.453 2.594.728 4.136.61 1.736-.132 3.025.364 3.386 1.304.332.867 1.807 1.518 3.436 1.518 1.569 0 3.43.618 4.135 1.372.825.884 2.575 1.199 4.91.886 2.105-.282 3.917-.019 4.316.628.398.643 3.585 1.114 7.547 1.114 3.771 0 7.009.454 7.194 1.01.185.555 1.349 1.205 2.587 1.443 1.238.239 2.66.687 3.161.997.501.309 1.086.038 1.3-.604.273-.819.921-.868 2.181-.163 2.267 1.269 7.433.476 5.443-.835-1.08-.712-1.001-1.086.408-1.916.962-.567 1.75-1.657 1.75-2.423 0-1.903 1.95-2.959 3.185-1.724.68.68 1.964.472 3.932-.637 2.549-1.438 3.039-1.461 3.848-.177 1.115 1.771 1.55 1.377 2.402-2.175l.648-2.704-5.258.549c-2.891.301-6.792 1.236-8.668 2.077-3.65 1.636-13.178 1.283-15.412-.571-.652-.541-2.758-1.133-4.681-1.315-2.135-.203-3.399-.819-3.246-1.582.138-.687-.2-1.25-.75-1.25s-1-.87-1-1.933c0-2.027-3.231-3.66-5.035-2.545-.579.357-1.777.049-2.662-.686-.885-.735-2.553-1.389-3.706-1.453-7.008-.391-12.167-.401-20.597-.041-9.685.413-23.926-1.249-26.226-3.061-.701-.552-2.849-1.253-4.774-1.557-1.925-.305-4.34-.885-5.366-1.291-1.632-.644-1.728-.478-.765 1.322m-11.708 5.484c-.638.638-1.161 2.385-1.161 3.882 0 2.19.566 2.845 2.907 3.359 2.384.523 3.143 1.438 4.218 5.079 1.122 3.799 1.678 4.424 3.843 4.325 1.694-.078 1.953-.267.783-.573-1.959-.512-3.34-4.549-2.192-6.406.549-.889 1.077-.756 1.998.503.726.993 1.508 1.296 1.863.721.337-.545.155-1.273-.404-1.619-1.699-1.05-1.134-2.486.734-1.865.962.321.4-.551-1.25-1.936-1.649-1.385-3.337-2.31-3.75-2.055-.412.255-.75.084-.75-.379 0-.464-1.277-1.598-2.839-2.521-2.155-1.273-3.118-1.397-4-.515m129.804.303c-.924 1.114-.977 1.846-.19 2.633 1.576 1.576 4.225.232 4.225-2.144 0-2.402-2.224-2.671-4.035-.489m-351.152.141c.721.289 1.584.253 1.916-.079.332-.332-.258-.568-1.312-.525-1.165.048-1.402.285-.604.604m360.606 7.673c-1.144.638-1.917 1.65-1.717 2.25.513 1.54-1.617 6.812-2.426 6.004-.881-.882-1.44-3.552-1.352-6.462l.071-2.353-2.248 2.089a158.244 158.244 0 01-5.086 4.461c-2.33 1.947-2.555 2.482-1.25 2.982.874.336 1.589.222 1.589-.251 0-1.475 3.299-2.21 4.1-.914 1.135 1.837-.993 5.345-2.393 3.945-1.792-1.792-4.278-1.292-4.278.86 0 1.197 1.061 2.408 2.707 3.09 2.499 1.035 2.993.806 6.402-2.968 2.032-2.249 4.265-4.089 4.962-4.089 1.763 0 8.701-7.865 7.975-9.04-.781-1.264-4.447-1.058-7.056.396m-198.669 1.722c.688.727 1.25 2.062 1.25 2.967 0 1.598 2.95 4.955 4.353 4.955.383 0 1.124-1.125 1.647-2.5.523-1.375 1.674-2.5 2.559-2.5.884 0 1.422-.558 1.194-1.24-.254-.763-1.797-1.12-4.016-.929-1.982.171-4.646-.226-5.92-.883-1.914-.985-2.1-.963-1.067.13M294 404.04c0 .573-.92 2.285-2.044 3.805-1.285 1.739-1.786 3.434-1.351 4.569.622 1.621.785 1.641 1.594.195 1.07-1.912 3.461-2.124 4.055-.359.327.971.798.939 2.108-.143 1.965-1.622 3.573-.642 1.821 1.11-2.017 2.017-1.299 3.198.793 1.304 1.087-.983 1.736-2.178 1.441-2.655-.801-1.297 1.005-1.044 2.383.334.66.66 1.2 2.179 1.2 3.375 0 2.374 3.045 3.425 9.925 3.425 2.021 0 4.207.533 4.858 1.183 1.514 1.514 1.811 1.116 2.498-3.344.52-3.375.32-3.762-2.567-4.958-1.723-.713-5.728-1.225-8.9-1.137-3.581.099-6.258-.331-7.061-1.134-.712-.712-2.297-1.831-3.524-2.487-1.226-.656-2.265-1.965-2.308-2.908-.048-1.043-.277-1.225-.583-.465-.278.688-1.169 1.25-1.98 1.25-.812 0-1.198-.45-.858-1 .34-.55.141-1-.441-1s-1.059.468-1.059 1.04m45.03 3.731c-.019 1.459.848 2.672 2.421 3.389 1.995.909 2.506 1.96 2.75 5.656l.299 4.539 4.617.19c3.705.152 4.593-.13 4.5-1.428-.137-1.9 1.297-1.828 7.285.366 2.635.965 4.767 1.248 5.31.705.543-.543-.572-1.147-2.777-1.505-4.893-.794-7.332-3.184-8.091-7.933-.421-2.634-.896-3.477-1.454-2.581-.673 1.08-1.212 1.094-2.859.073-1.785-1.106-2.031-1.016-2.031.75 0 1.104-.381 2.008-.846 2.008-1.772 0-7.172-3.207-8.112-4.817-.849-1.457-.985-1.377-1.012.588m25.97 6.105c3.852 1.958 5.751 1.733 3.926-.465-.644-.776-2.578-1.389-4.298-1.363l-3.128.048 3.5 1.78m7.247.383c.224.683 1.835 1.382 3.58 1.554 1.745.173 3.173.762 3.173 1.309 0 .548.493.691 1.096.319 1.657-1.024-.999-3.075-4.926-3.805-2.413-.448-3.218-.276-2.923.623M282.5 421c-1.347.579-1.51.887-.5.945 1.333.076 1.333.193 0 1.055-1.828 1.181-.249 1.181 2.5 0 1.1-.473 1.411-.891.691-.93-.72-.038-1.031-.52-.691-1.07.711-1.15.676-1.15-2 0m-14.975 2.5c-.371 1.1-1.251 3.613-1.954 5.583-1.049 2.94-1.044 3.584.032 3.584.721 0 1.541-.6 1.823-1.334.281-.733 1.227-1.333 2.102-1.333.874 0 1.312-.45.972-1-.34-.55-.029-1.007.691-1.015.984-.012 1.011-.205.109-.779-.66-.419-1.628-1.875-2.15-3.234-.894-2.328-.989-2.355-1.625-.472m-37.446 3.095c-.045 1.756-.954 3.887-2.103 4.926-1.431 1.296-1.712 2.143-.958 2.897s1.34.629 2.005-.426c.823-1.308 1.316-1.279 4.005.238 1.686.952 2.793 1.29 2.46.75-.333-.539-.017-1.009.703-1.043.72-.035.345-.453-.834-.928-1.263-.51-2.77-2.639-3.671-5.187-1.468-4.152-1.531-4.201-1.607-1.227M247.232 428c-1.3 2.082-5.232 2.789-5.232.941 0-1.404-1.755-.267-2.906 1.883-.804 1.502-.407 1.683 3.245 1.478 3.441-.193 3.728-.084 1.661.633l-2.5.866 2.844.099c2.051.072 2.989-.457 3.366-1.9.35-1.337 1.364-2 3.062-2 2.475 0 2.493-.05.728-2-.995-1.1-2.082-2-2.414-2-.333 0-1.167.9-1.854 2m52.009 6.37c-.594 1.303-1.376 4.566-1.74 7.25-.746 5.515-4.016 16.378-6.286 20.88-.832 1.65-4.631 6.221-8.443 10.157-6.276 6.482-6.731 7.221-4.824 7.827 4.689 1.488 14.76-8.423 20.528-20.203 2.615-5.341 6.912-20.226 6.079-21.059-.205-.205-.698.653-1.096 1.906-.86 2.711-2.857 4.872-4.501 4.872-1.594 0-.322-8.515 1.743-11.667.841-1.283 1.099-2.333.575-2.333-.525 0-1.441 1.066-2.035 2.37m-79.139 14.969c.482 2.5.382 5.485-.25 7.478-1.218 3.842-.251 5.598 1.473 2.675 1.665-2.823 2.551-9.41 1.234-9.178-.583.102-1.025-.809-.984-2.024.041-1.216-.453-2.413-1.099-2.661-.86-.33-.96.665-.374 3.71m48.123 2.214c-4.034 5.214-4.113 5.447-1.842 5.447 1.305 0 2.83-.562 3.391-1.25 1.016-1.248 3.398-8.911 2.919-9.391-.14-.139-2.15 2.198-4.468 5.194m27.976.768c-1.572 4.347-1.515 5.679.242 5.679 1.925 0 4.557-3.884 4.557-6.723 0-3.628-3.375-2.894-4.799 1.044m-59.953 4.47c-1.819.282-2.008.592-.982 1.618 1.733 1.733 6.734 2.619 6.734 1.193 0-1.658-3.176-3.21-5.752-2.811M249.5 461c-1.952.839-1.949.861.124.93 1.169.038 3.999.731 6.291 1.54 4.712 1.662 4.656.46-.089-1.907-3.511-1.752-3.552-1.755-6.326-.563m-22.677 6.709c-1.472.225-3.199 1.039-3.838 1.809-.93 1.12-.69 1.518 1.2 1.992 1.299.326 3.476.148 4.839-.395 1.94-.774 2.071-1.002.604-1.052-1.55-.052-1.658-.322-.628-1.563.685-.825 1.077-1.433.872-1.35-.204.082-1.577.334-3.049.559M221 478.383c0 .211 1.111.596 2.47.856 1.358.26 2.232.087 1.941-.383-.512-.829-4.411-1.246-4.411-.473" fill="undefined" fill-rule="evenodd"/></svg>